# xmcd
#
# Track frame offsets:
# 150
# 21615
# 33878
# 45576
# 50349
# 59177
# 82845
# 87686
# 95969
# 110476
# 116869
# 128391
# 143073
# 146572
# 151293
# 157530
# 175950
# 185018
# 193076
# 196036
# 212801
# 214607
# 220177
# 228787
# 239676
# 254151
# 257240
# 263183
# 274210
# 279613
# 285041
# 293600
# 306918
#
# Disc length: 4331 seconds
#
#
# Revision: 0
# Processed by: cddbd v1.4PL0 Copyright (c) Steve Scherf et al.
# Submitted via: FreeRIP 2.00 
#
DISCID=f610e921
DTITLE=Tim and Willy - Tim and Willennium , Disc 2 , the first 1000 years
DYEAR=1999
DGENRE=Comedy
TTITLE0=If I had a million dollars
TTITLE1=bullwinkle zoo IQ
TTITLE2=priorities and morqals
TTITLE3=Love Shack
TTITLE4=Green means Go
TTITLE5=Donny Osmond
TTITLE6=RIP Taylor
TTITLE7=Elaine from Green Valley
TTITLE8=I wanna Be a cow
TTITLE9=Elaine again
TTITLE10=elaine wants to bea cow
TTITLE11=Chris Isaak
TTITLE12=Wild Thing
TTITLE13=Danny De vito and Arnold Schwartzenegger
TTITLE14=Buckwheat man
TTITLE15=groovy marcia brady
TTITLE16=Barb the coughing Lady
TTITLE17=Crap
TTITLE18=Bare's OK
TTITLE19=Boyz II Men
TTITLE20=Cher
TTITLE21=Justify my Love
TTITLE22=Drivin' with our eyes closed
TTITLE23=Papoo
TTITLE24=Amy Grant
TTITLE25=Sam and Henny
TTITLE26=Willy and Chris Atkins
TTITLE27=Dinah D. Loon
TTITLE28=Lets talk about trucks
TTITLE29=Kenny Loggins
TTITLE30=Bud Fosters Head
TTITLE31=Gunther Gable Williams
TTITLE32=Data info
EXTD=Tim and willy are radio host on Knix in Phoenix AZ
EXTT0=
EXTT1=
EXTT2=
EXTT3=
EXTT4=
EXTT5=
EXTT6=
EXTT7=
EXTT8=
EXTT9=
EXTT10=
EXTT11=
EXTT12=
EXTT13=
EXTT14=
EXTT15=
EXTT16=
EXTT17=
EXTT18=
EXTT19=
EXTT20=
EXTT21=
EXTT22=
EXTT23=
EXTT24=
EXTT25=
EXTT26=
EXTT27=
EXTT28=
EXTT29=
EXTT30=
EXTT31=
EXTT32=
PLAYORDER=
